<?xml version="1.0" encoding="UTF-8"?>
<!DOCTYPE svg PUBLIC "-//W3C//DTD SVG 1.1//EN" "http://www.w3.org/Graphics/SVG/1.1/DTD/svg11.dtd">
<!-- Creator: CorelDRAW 2020 (64-Bit) -->
<svg xmlns="http://www.w3.org/2000/svg" xml:space="preserve" width="1334px" height="238px" version="1.1" style="shape-rendering:geometricPrecision; text-rendering:geometricPrecision; image-rendering:optimizeQuality; fill-rule:evenodd; clip-rule:evenodd"
viewBox="0 0 154.04 27.52"
 xmlns:xlink="http://www.w3.org/1999/xlink"
 xmlns:xodm="http://www.corel.com/coreldraw/odm/2003">
 <defs>
  <style type="text/css">
   <![CDATA[
    .fil0 {fill:#FEFEFE}
    .fil1 {fill:#FEFEFE;fill-rule:nonzero}
   ]]>
  </style>
 </defs>
 <g id="Layer_x0020_1">
  <metadata id="CorelCorpID_0Corel-Layer"/>
  <path class="fil0" d="M37.83 23.52c-0.58,1.39 -2.61,1.54 -3.28,0 -2.17,-5.21 -4.11,-12.1 -5.98,-17.59l3.69 0 3.88 11.42 4.16 -9.24c0.68,-0.56 2.16,-0.59 2.79,0.92l3.67 8.77 4.03 -11.87 3.69 0 -6.08 17.91c-0.48,1.49 -2.69,1.45 -3.29,0.01l-3.72 -8.98 -3.56 8.65zm34.38 -11.96c0.68,1.63 1.76,5.36 -1.24,5.36l-12.51 0c0.97,4.41 5.72,5.64 9.61,3.34l2.43 2.39c-5.97,5.22 -15.73,1.07 -15.73,-7.2 0,-10.11 13.52,-13.32 17.44,-3.89zm-2.98 2.04c-1.38,-5.5 -8.98,-5.53 -10.69,-0.02l10.69 0.02zm23.16 1.74c0,12.22 -17.82,13.09 -17.82,0.38l0 -13.16 3.62 0 0 5.05c5.08,-4.18 14.2,-0.85 14.2,7.73zm-3.62 0c0,-6.48 -7.98,-8.32 -10.27,-2.34 -2.26,5.89 4.51,11.26 8.67,6.61 1.01,-1.14 1.6,-2.7 1.6,-4.27zm14.62 6.01l0 3.37c-2.5,0 -4.51,0.24 -6.48,-1.74 -1.08,-1.07 -1.74,-2.56 -1.74,-4.22l0 -9.27 -2.29 0 0 -3.54 2.29 0 0 -3.21 3.54 0.01 0 3.2 3.08 0 0 3.54 -3.08 0 0 8.4c0,2.94 2.35,3.29 4.68,3.29l0 0.17zm13.61 -15.4l3.34 0 0 18.73 -3.51 0 0 -1.58c-4.5,3.73 -12.22,0.8 -12.22,-6.24l0 -10.91 3.5 0 0 10.94c0.25,5.94 8.61,5.48 8.72,0.16l0 -11.1 0.17 0zm15.22 8.69c6.06,2.25 4.53,10.31 -2.99,10.31 -2.65,0 -5.11,-1.37 -6.58,-3.58l2.64 -2.57c3.34,4.97 8.55,2.16 6.73,-0.2 -1.51,-1.97 -8.32,-1.75 -9.25,-6.56 -1.24,-6.42 9.61,-8.59 13.18,-2.61l-2.64 2.51c-3.95,-5.91 -10.62,-0.76 -4.86,1.37l3.77 1.33zm14.17 -0.96l7.65 11.04 -4.3 0 -5.88 -8.43 -1.97 2.01 0 6.42 -3.58 0 0 -22.16 3.58 0 0 10.68 7.06 -7.29 4.93 0 -7.49 7.73z"/>
  <path class="fil1" d="M10.09 9.79l3 10.93c0,0.01 0,0.01 0,0.01 -2.28,0.63 -4.64,-0.71 -5.27,-3l-3 -10.94c2.28,-0.63 4.64,0.71 5.27,3zm5.89 0.13l1.92 8.38c0,0.01 0,0.01 0,0.01 -2.28,0.52 -4.54,-0.91 -5.06,-3.18l-1.92 -8.39c2.28,-0.52 4.54,0.91 5.06,3.18zm5.78 0.23l0.94 5.16c0,0 0,0 0,0l0.01 0.01c-2.33,0.42 -4.57,-1.12 -4.99,-3.45l-0.95 -5.16c2.33,-0.43 4.56,1.11 4.99,3.44zm-8 17.37c7.6,0 13.76,-6.16 13.76,-13.76 0,-7.6 -6.16,-13.76 -13.76,-13.76 -7.6,0 -13.76,6.16 -13.76,13.76 0,7.6 6.16,13.76 13.76,13.76z"/>
 </g>
</svg>
