<?xml version="1.0" encoding="UTF-8"?>
<!DOCTYPE svg PUBLIC "-//W3C//DTD SVG 1.1//EN" "http://www.w3.org/Graphics/SVG/1.1/DTD/svg11.dtd">
<!-- Creator: CorelDRAW 2020 (64-Bit) -->
<svg xmlns="http://www.w3.org/2000/svg" xml:space="preserve" width="238px" height="238px" version="1.1" style="shape-rendering:geometricPrecision; text-rendering:geometricPrecision; image-rendering:optimizeQuality; fill-rule:evenodd; clip-rule:evenodd"
viewBox="0 0 4.91 4.91"
 xmlns:xlink="http://www.w3.org/1999/xlink"
 xmlns:xodm="http://www.corel.com/coreldraw/odm/2003">
 <defs>
  <style type="text/css">
   <![CDATA[
    .fil0 {fill:#FEFEFE;fill-rule:nonzero}
   ]]>
  </style>
 </defs>
 <g id="Layer_x0020_1">
  <metadata id="CorelCorpID_0Corel-Layer"/>
  <path class="fil0" d="M1.8 1.75l0.54 1.95c0,0 0,0 0,0 -0.41,0.11 -0.83,-0.13 -0.94,-0.54l-0.54 -1.95c0.41,-0.11 0.83,0.13 0.94,0.54zm1.05 0.02l0.34 1.5c0,0 0,0 0,0 -0.4,0.09 -0.81,-0.17 -0.9,-0.57l-0.34 -1.5c0.4,-0.09 0.81,0.16 0.9,0.57zm1.03 0.04l0.17 0.92c0,0 0,0 0,0l0 0c-0.41,0.08 -0.81,-0.2 -0.89,-0.61l-0.17 -0.92c0.42,-0.08 0.82,0.2 0.89,0.61zm-1.42 3.1c1.35,0 2.45,-1.1 2.45,-2.45 0,-1.36 -1.1,-2.46 -2.45,-2.46 -1.36,0 -2.46,1.1 -2.46,2.46 0,1.35 1.1,2.45 2.46,2.45z"/>
 </g>
</svg>
